<svg xmlns="http://www.w3.org/2000/svg" viewBox="0 0 1600 1020" role="img" aria-label="Research map for AI proactive transportation safety">
  <defs><style>.t{font:700 44px Segoe UI,Arial,sans-serif;fill:#172126}.s{font:400 27px Segoe UI,Arial,sans-serif;fill:#5d676a}.h{font:700 30px Segoe UI,Arial,sans-serif;fill:white}.b{font:400 27px Segoe UI,Arial,sans-serif;fill:#293033}.sm{font:400 21px Segoe UI,Arial,sans-serif;fill:#5d676a}.box{fill:#fffefb;stroke:#d9d4c8;stroke-width:2}</style></defs>
  <rect width="1600" height="1020" fill="#faf9f5"/><text x="76" y="106" class="t">Research Map: AI for Proactive Transportation Safety</text><text x="78" y="146" class="s">From multi-source sensing to interpretable risk evidence and safer operations</text>
  <rect x="90" y="250" width="310" height="310" rx="24" class="box"/><path d="M90 274Q90 250 114 250H376Q400 250 400 274V326H90Z" fill="#419182"/><text x="116" y="304" class="h">Data</text><rect x="455" y="250" width="310" height="310" rx="24" class="box"/><path d="M455 274Q455 250 479 250H741Q765 250 765 274V326H455Z" fill="#dd5c49"/><text x="481" y="304" class="h">Models</text><rect x="820" y="250" width="310" height="310" rx="24" class="box"/><path d="M820 274Q820 250 844 250H1106Q1130 250 1130 274V326H820Z" fill="#e0a036"/><text x="846" y="304" class="h">Evidence</text><rect x="1185" y="250" width="310" height="310" rx="24" class="box"/><path d="M1185 274Q1185 250 1209 250H1471Q1495 250 1495 274V326H1185Z" fill="#445f82"/><text x="1211" y="304" class="h">Action</text>
  <text x="118" y="388" class="b">CV trajectories</text><text x="118" y="425" class="b">video and UAV</text><text x="118" y="462" class="b">crash records</text><text x="118" y="499" class="b">weather and road</text><text x="118" y="536" class="b">context</text>
  <text x="483" y="388" class="b">deep ensembles</text><text x="483" y="425" class="b">BiLSTM and Transformer</text><text x="483" y="462" class="b">causal mediation</text><text x="483" y="499" class="b">Bayesian heterogeneity</text>
  <text x="848" y="388" class="b">risk mechanisms</text><text x="848" y="425" class="b">spatiotemporal shifts</text><text x="848" y="462" class="b">injury severity</text><text x="848" y="499" class="b">conflict likelihood</text>
  <text x="1213" y="388" class="b">speed management</text><text x="1213" y="425" class="b">ADAS evaluation</text><text x="1213" y="462" class="b">VRU protection</text><text x="1213" y="499" class="b">tunnel operations</text>
  <g stroke="#5d676a" stroke-width="5"><path d="M418 405H452"/><path d="M783 405H817"/><path d="M1148 405H1182"/></g>
  <rect x="110" y="650" width="380" height="56" rx="28" fill="#419182"/><text x="140" y="686" class="sm" fill="white">Connected vehicles</text><rect x="605" y="650" width="380" height="56" rx="28" fill="#dd5c49"/><text x="635" y="686" class="sm" fill="white">Causal AI</text><rect x="1100" y="650" width="380" height="56" rx="28" fill="#e0a036"/><text x="1130" y="686" class="sm" fill="white">Vulnerable road users</text><rect x="110" y="734" width="380" height="56" rx="28" fill="#445f82"/><text x="140" y="770" class="sm" fill="white">Spatial safety</text><rect x="605" y="734" width="380" height="56" rx="28" fill="#6f538b"/><text x="635" y="770" class="sm" fill="white">ADAS / CAV</text><rect x="1100" y="734" width="380" height="56" rx="28" fill="#477b5f"/><text x="1130" y="770" class="sm" fill="white">Multimodal video</text>
  <text x="130" y="895" class="h" fill="#172126">74</text><text x="130" y="930" class="sm">published journal papers</text><text x="500" y="895" class="h" fill="#172126">$3.3M+</text><text x="500" y="930" class="sm">funding involvement</text><text x="870" y="895" class="h" fill="#172126">40+</text><text x="870" y="930" class="sm">reviewed journals</text><text x="1240" y="895" class="h" fill="#172126">30</text><text x="1240" y="930" class="sm">students supervised or mentored</text>
</svg>
