<svg xmlns="http://www.w3.org/2000/svg" viewBox="0 0 1000 620" role="img" aria-label="Multimodal Video and Generative Models">
  <defs>
    <style>
      .title{font:700 34px Segoe UI,Arial,sans-serif;fill:#fff}
      .head{font:700 24px Segoe UI,Arial,sans-serif;fill:#172126}
      .label{font:400 18px Segoe UI,Arial,sans-serif;fill:#5d676a}
      .small{font:400 15px Segoe UI,Arial,sans-serif;fill:#5d676a}
      .box{fill:#fffefb;stroke:#d9d4c8;stroke-width:2}
      .grid{stroke:#e8e3d7;stroke-width:1}
    </style>
  </defs>
  <rect width="1000" height="620" fill="#faf9f5"/>
  <rect width="1000" height="92" fill="#477b5f"/>
  <text x="42" y="60" class="title">Multimodal Video and Generative Models</text>
  <g opacity="0.75">
    <path class="grid" d="M60 120L-60 620M150 120L30 620M240 120L120 620M330 120L210 620M420 120L300 620M510 120L390 620M600 120L480 620M690 120L570 620M780 120L660 620M870 120L750 620M960 120L840 620"/>
    <path class="grid" d="M0 140L1000 160M0 212L1000 232M0 284L1000 304M0 356L1000 376M0 428L1000 448M0 500L1000 520M0 572L1000 592"/>
  </g>

  <g><rect x="80" y="160" width="190" height="118" rx="10" class="box"/><rect x="95" y="180" width="160" height="40" fill="#29302f"/><path d="M105 250L255 234" stroke="#419182" stroke-width="3"/><circle cx="175" cy="212" r="8" fill="#dd5c49"/><rect x="160" y="160" width="190" height="118" rx="10" class="box"/><rect x="175" y="180" width="160" height="40" fill="#29302f"/><path d="M185 250L335 234" stroke="#419182" stroke-width="3"/><circle cx="255" cy="212" r="8" fill="#dd5c49"/><rect x="240" y="160" width="190" height="118" rx="10" class="box"/><rect x="255" y="180" width="160" height="40" fill="#29302f"/><path d="M265 250L415 234" stroke="#419182" stroke-width="3"/><circle cx="335" cy="212" r="8" fill="#dd5c49"/></g>
  <text x="104" y="300" class="label">first-person event frames</text>
  <rect x="430" y="170" width="170" height="110" rx="18" class="box"/><text x="464" y="218" class="head">VLM</text><text x="454" y="248" class="label">event parser</text><path d="M350 220H425" stroke="#172126" stroke-width="4"/><path d="M430 220l-14-8v16z" fill="#172126"/>
  <rect x="690" y="138" width="230" height="100" rx="14" class="box"/><text x="718" y="180" class="head">Structured scene</text><text x="718" y="210" class="label">actors, intent, risk</text>
  <rect x="690" y="318" width="230" height="140" rx="14" class="box"/><text x="718" y="382" class="head">Counterfactual</text><text x="718" y="412" class="label">what-if trajectory</text><path d="M735 420H880M735 420L850 386" stroke="#dd5c49" stroke-width="4"/>
  <path d="M600 220L686 188M600 240L686 378" stroke="#172126" stroke-width="4"/><path d="M690 188l-15-6 5 16zM690 378l-16-3 9 14z" fill="#172126"/>
  <rect x="110" y="435" width="480" height="105" rx="14" class="box"/><text x="132" y="480" class="head">Interpretable multimodal cognition</text><text x="132" y="510" class="label">video + language + diffusion what-if safety analysis</text>
</svg>
